<svg width="22" height="15" viewBox="0 0 22 15" xmlns="http://www.w3.org/2000/svg"><title>menu</title><g fill="#4F4F4E" fill-rule="evenodd"><path d="M20.308 2.256H1.128C.505 2.256 0 1.75 0 1.128 0 .505.505 0 1.128 0h19.18c.623 0 1.128.505 1.128 1.128 0 .623-.505 1.128-1.128 1.128zM20.308 8.462H1.128C.505 8.462 0 7.956 0 7.332c0-.622.505-1.127 1.128-1.127h19.18c.623 0 1.128.505 1.128 1.128 0 .623-.505 1.13-1.128 1.13zM20.308 14.667H1.128c-.623 0-1.128-.505-1.128-1.13 0-.622.505-1.127 1.128-1.127h19.18c.623 0 1.128.505 1.128 1.128 0 .624-.505 1.13-1.128 1.13z"/></g></svg>
