<svg width="20" height="20" viewBox="0 0 20 20" xmlns="http://www.w3.org/2000/svg"><title>A64D72B3-330B-4DD5-A19D-738492EDC15B</title><path d="M19.51 17.147l-4.344-4.345c-.023-.023-.05-.04-.075-.06.856-1.297 1.355-2.85 1.355-4.52 0-4.54-3.68-8.222-8.222-8.222S0 3.68 0 8.223c0 4.54 3.68 8.222 8.223 8.222 1.67 0 3.22-.5 4.518-1.354.023.025.04.052.062.076l4.345 4.345c.653.653 1.71.653 2.364 0 .653-.652.653-1.71 0-2.363zM8.224 13.595c-2.967 0-5.373-2.405-5.373-5.372S5.256 2.85 8.223 2.85c2.966 0 5.372 2.406 5.372 5.373s-2.406 5.372-5.372 5.372z" fill="#ffffff" fill-rule="evenodd"/></svg>
